# Wavefront OBJ file automatically generated by Tiled2Unity

# Vertices (Count = 121)
v 0 -32 0
v -32 -32 0
v -32 0 0
v 0 0 0
v -64 -32 0
v -64 0 0
v -96 -32 0
v -96 0 0
v -128 -32 0
v -128 0 0
v -160 -32 0
v -160 0 0
v -192 -32 0
v -192 0 0
v -224 -32 0
v -224 0 0
v -256 -32 0
v -256 0 0
v -288 -32 0
v -288 0 0
v -320 -32 0
v -320 0 0
v 0 -64 0
v -32 -64 0
v -64 -64 0
v -96 -64 0
v -128 -64 0
v -160 -64 0
v -192 -64 0
v -224 -64 0
v -256 -64 0
v -288 -64 0
v -320 -64 0
v 0 -96 0
v -32 -96 0
v -64 -96 0
v -96 -96 0
v -128 -96 0
v -160 -96 0
v -192 -96 0
v -224 -96 0
v -256 -96 0
v -288 -96 0
v -320 -96 0
v 0 -128 0
v -32 -128 0
v -64 -128 0
v -96 -128 0
v -128 -128 0
v -160 -128 0
v -192 -128 0
v -224 -128 0
v -256 -128 0
v -288 -128 0
v -320 -128 0
v 0 -160 0
v -32 -160 0
v -64 -160 0
v -96 -160 0
v -128 -160 0
v -160 -160 0
v -192 -160 0
v -224 -160 0
v -256 -160 0
v -288 -160 0
v -320 -160 0
v 0 -192 0
v -32 -192 0
v -64 -192 0
v -96 -192 0
v -128 -192 0
v -160 -192 0
v -192 -192 0
v -224 -192 0
v -256 -192 0
v -288 -192 0
v -320 -192 0
v 0 -224 0
v -32 -224 0
v -64 -224 0
v -96 -224 0
v -128 -224 0
v -160 -224 0
v -192 -224 0
v -224 -224 0
v -256 -224 0
v -288 -224 0
v -320 -224 0
v 0 -256 0
v -32 -256 0
v -64 -256 0
v -96 -256 0
v -128 -256 0
v -160 -256 0
v -192 -256 0
v -224 -256 0
v -256 -256 0
v -288 -256 0
v -320 -256 0
v 0 -288 0
v -32 -288 0
v -64 -288 0
v -96 -288 0
v -128 -288 0
v -160 -288 0
v -192 -288 0
v -224 -288 0
v -256 -288 0
v -288 -288 0
v -320 -288 0
v 0 -320 0
v -32 -320 0
v -64 -320 0
v -96 -320 0
v -128 -320 0
v -160 -320 0
v -192 -320 0
v -224 -320 0
v -256 -320 0
v -288 -320 0
v -320 -320 0

# Texture cooridinates (Count = 72)
vt 0.06678874 0.5334554
vt 0.09987793 0.5334554
vt 0.09987793 0.5665446
vt 0.06678874 0.5665446
vt 0.0001220703 0.5667887
vt 0.03321126 0.5667887
vt 0.03321126 0.599878
vt 0.0001220703 0.599878
vt 0.03345541 0.5334554
vt 0.0665446 0.5334554
vt 0.0665446 0.5665446
vt 0.03345541 0.5665446
vt 0.0001220703 0.5334554
vt 0.03321126 0.5334554
vt 0.03321126 0.5665446
vt 0.0001220703 0.5665446
vt 0.06678874 0.6001221
vt 0.09987793 0.6001221
vt 0.09987793 0.6332113
vt 0.06678874 0.6332113
vt 0.1667887 0.9334554
vt 0.1998779 0.9334554
vt 0.1998779 0.9665446
vt 0.1667887 0.9665446
vt 0.1667887 0.7667887
vt 0.1998779 0.7667887
vt 0.1998779 0.7998779
vt 0.1667887 0.7998779
vt 0.1667887 0.7334554
vt 0.1998779 0.7334554
vt 0.1998779 0.7665446
vt 0.1667887 0.7665446
vt 0.06678874 0.9334554
vt 0.09987793 0.9334554
vt 0.09987793 0.9665446
vt 0.06678874 0.9665446
vt 0.0001220703 0.900122
vt 0.03321126 0.900122
vt 0.03321126 0.9332113
vt 0.0001220703 0.9332113
vt 0.06678874 0.7667887
vt 0.09987793 0.7667887
vt 0.09987793 0.7998779
vt 0.06678874 0.7998779
vt 0.1001221 0.7667887
vt 0.1332113 0.7667887
vt 0.1332113 0.7998779
vt 0.1001221 0.7998779
vt 0.06678874 0.7334554
vt 0.09987793 0.7334554
vt 0.09987793 0.7665446
vt 0.06678874 0.7665446
vt 0.1001221 0.7334554
vt 0.1332113 0.7334554
vt 0.1332113 0.7665446
vt 0.1001221 0.7665446
vt 0.1001221 0.4667887
vt 0.1332113 0.4667887
vt 0.1332113 0.4998779
vt 0.1001221 0.4998779
vt 0.1334554 0.4667887
vt 0.1665446 0.4667887
vt 0.1665446 0.4998779
vt 0.1334554 0.4998779
vt 0.1001221 0.4334554
vt 0.1332113 0.4334554
vt 0.1332113 0.4665446
vt 0.1001221 0.4665446
vt 0.1334554 0.4334554
vt 0.1665446 0.4334554
vt 0.1665446 0.4665446
vt 0.1334554 0.4665446

# Normal
vn 0 0 -1

# Groups (Count = 3)

g mesh_0001
f 1/1/1 2/2/1 3/3/1 4/4/1
f 2/5/1 5/6/1 6/7/1 3/8/1
f 5/5/1 7/6/1 8/7/1 6/8/1
f 7/5/1 9/6/1 10/7/1 8/8/1
f 9/5/1 11/6/1 12/7/1 10/8/1
f 11/5/1 13/6/1 14/7/1 12/8/1
f 13/5/1 15/6/1 16/7/1 14/8/1
f 15/5/1 17/6/1 18/7/1 16/8/1
f 17/5/1 19/6/1 20/7/1 18/8/1
f 19/9/1 21/10/1 22/11/1 20/12/1
f 23/1/1 24/2/1 2/3/1 1/4/1
f 24/13/1 25/14/1 5/15/1 2/16/1
f 25/13/1 26/14/1 7/15/1 5/16/1
f 26/13/1 27/14/1 9/15/1 7/16/1
f 27/13/1 28/14/1 11/15/1 9/16/1
f 28/13/1 29/14/1 13/15/1 11/16/1
f 29/13/1 30/14/1 15/15/1 13/16/1
f 30/13/1 31/14/1 17/15/1 15/16/1
f 31/13/1 32/14/1 19/15/1 17/16/1
f 32/9/1 33/10/1 21/11/1 19/12/1
f 34/1/1 35/2/1 24/3/1 23/4/1
f 35/17/1 36/18/1 25/19/1 24/20/1
f 36/17/1 37/18/1 26/19/1 25/20/1
f 37/17/1 38/18/1 27/19/1 26/20/1
f 38/17/1 39/18/1 28/19/1 27/20/1
f 39/17/1 40/18/1 29/19/1 28/20/1
f 40/17/1 41/18/1 30/19/1 29/20/1
f 41/17/1 42/18/1 31/19/1 30/20/1
f 42/17/1 43/18/1 32/19/1 31/20/1
f 43/9/1 44/10/1 33/11/1 32/12/1
f 45/1/1 46/2/1 35/3/1 34/4/1
f 46/17/1 47/18/1 36/19/1 35/20/1
f 47/17/1 48/18/1 37/19/1 36/20/1
f 48/17/1 49/18/1 38/19/1 37/20/1
f 49/17/1 50/18/1 39/19/1 38/20/1
f 50/17/1 51/18/1 40/19/1 39/20/1
f 51/17/1 52/18/1 41/19/1 40/20/1
f 52/17/1 53/18/1 42/19/1 41/20/1
f 53/17/1 54/18/1 43/19/1 42/20/1
f 54/9/1 55/10/1 44/11/1 43/12/1
f 56/1/1 57/2/1 46/3/1 45/4/1
f 57/17/1 58/18/1 47/19/1 46/20/1
f 58/17/1 59/18/1 48/19/1 47/20/1
f 59/17/1 60/18/1 49/19/1 48/20/1
f 60/17/1 61/18/1 50/19/1 49/20/1
f 61/17/1 62/18/1 51/19/1 50/20/1
f 62/17/1 63/18/1 52/19/1 51/20/1
f 63/17/1 64/18/1 53/19/1 52/20/1
f 64/17/1 65/18/1 54/19/1 53/20/1
f 65/9/1 66/10/1 55/11/1 54/12/1
f 67/1/1 68/2/1 57/3/1 56/4/1
f 68/17/1 69/18/1 58/19/1 57/20/1
f 69/17/1 70/18/1 59/19/1 58/20/1
f 70/17/1 71/18/1 60/19/1 59/20/1
f 71/17/1 72/18/1 61/19/1 60/20/1
f 72/17/1 73/18/1 62/19/1 61/20/1
f 73/17/1 74/18/1 63/19/1 62/20/1
f 74/17/1 75/18/1 64/19/1 63/20/1
f 75/17/1 76/18/1 65/19/1 64/20/1
f 76/9/1 77/10/1 66/11/1 65/12/1
f 78/1/1 79/2/1 68/3/1 67/4/1
f 79/17/1 80/18/1 69/19/1 68/20/1
f 80/17/1 81/18/1 70/19/1 69/20/1
f 81/17/1 82/18/1 71/19/1 70/20/1
f 82/17/1 83/18/1 72/19/1 71/20/1
f 83/17/1 84/18/1 73/19/1 72/20/1
f 84/17/1 85/18/1 74/19/1 73/20/1
f 85/17/1 86/18/1 75/19/1 74/20/1
f 86/17/1 87/18/1 76/19/1 75/20/1
f 87/9/1 88/10/1 77/11/1 76/12/1
f 89/1/1 90/2/1 79/3/1 78/4/1
f 90/17/1 91/18/1 80/19/1 79/20/1
f 91/17/1 92/18/1 81/19/1 80/20/1
f 92/17/1 93/18/1 82/19/1 81/20/1
f 93/17/1 94/18/1 83/19/1 82/20/1
f 94/17/1 95/18/1 84/19/1 83/20/1
f 95/17/1 96/18/1 85/19/1 84/20/1
f 96/17/1 97/18/1 86/19/1 85/20/1
f 97/17/1 98/18/1 87/19/1 86/20/1
f 98/9/1 99/10/1 88/11/1 87/12/1
f 100/1/1 101/2/1 90/3/1 89/4/1
f 101/17/1 102/18/1 91/19/1 90/20/1
f 102/17/1 103/18/1 92/19/1 91/20/1
f 103/17/1 104/18/1 93/19/1 92/20/1
f 104/17/1 105/18/1 94/19/1 93/20/1
f 105/17/1 106/18/1 95/19/1 94/20/1
f 106/17/1 107/18/1 96/19/1 95/20/1
f 107/17/1 108/18/1 97/19/1 96/20/1
f 108/17/1 109/18/1 98/19/1 97/20/1
f 109/9/1 110/10/1 99/11/1 98/12/1
f 111/1/1 112/2/1 101/3/1 100/4/1
f 112/17/1 113/18/1 102/19/1 101/20/1
f 113/17/1 114/18/1 103/19/1 102/20/1
f 114/17/1 115/18/1 104/19/1 103/20/1
f 115/17/1 116/18/1 105/19/1 104/20/1
f 116/17/1 117/18/1 106/19/1 105/20/1
f 117/17/1 118/18/1 107/19/1 106/20/1
f 118/17/1 119/18/1 108/19/1 107/20/1
f 119/17/1 120/18/1 109/19/1 108/20/1
f 120/9/1 121/10/1 110/11/1 109/12/1

g mesh_0002
f 112/21/1 113/22/1 102/23/1 101/24/1
f 113/21/1 114/22/1 103/23/1 102/24/1
f 114/21/1 115/22/1 104/23/1 103/24/1
f 117/21/1 118/22/1 107/23/1 106/24/1
f 118/21/1 119/22/1 108/23/1 107/24/1
f 119/21/1 120/22/1 109/23/1 108/24/1

g mesh_0003
f 2/25/1 5/26/1 6/27/1 3/28/1
f 24/29/1 25/30/1 5/31/1 2/32/1
f 97/33/1 98/34/1 87/35/1 86/36/1
f 108/37/1 109/38/1 98/39/1 97/40/1

g mesh_0004
f 25/41/1 26/42/1 7/43/1 5/44/1
f 26/45/1 27/46/1 9/47/1 7/48/1
f 36/49/1 37/50/1 26/51/1 25/52/1
f 37/53/1 38/54/1 27/55/1 26/56/1
f 57/57/1 58/58/1 47/59/1 46/60/1
f 58/61/1 59/62/1 48/63/1 47/64/1
f 62/41/1 63/42/1 52/43/1 51/44/1
f 63/45/1 64/46/1 53/47/1 52/48/1
f 68/65/1 69/66/1 58/67/1 57/68/1
f 69/69/1 70/70/1 59/71/1 58/72/1
f 73/49/1 74/50/1 63/51/1 62/52/1
f 74/53/1 75/54/1 64/55/1 63/56/1
f 91/41/1 92/42/1 81/43/1 80/44/1
f 92/45/1 93/46/1 82/47/1 81/48/1
f 102/49/1 103/50/1 92/51/1 91/52/1
f 103/53/1 104/54/1 93/55/1 92/56/1

