# Wavefront OBJ file automatically generated by Tiled2Unity

# Vertices (Count = 121)
v 0 -32 0
v -32 -32 0
v -32 0 0
v 0 0 0
v -64 -32 0
v -64 0 0
v -96 -32 0
v -96 0 0
v -128 -32 0
v -128 0 0
v -160 -32 0
v -160 0 0
v -192 -32 0
v -192 0 0
v -224 -32 0
v -224 0 0
v -256 -32 0
v -256 0 0
v -288 -32 0
v -288 0 0
v -320 -32 0
v -320 0 0
v 0 -64 0
v -32 -64 0
v -64 -64 0
v -96 -64 0
v -128 -64 0
v -160 -64 0
v -192 -64 0
v -224 -64 0
v -256 -64 0
v -288 -64 0
v -320 -64 0
v 0 -96 0
v -32 -96 0
v -64 -96 0
v -96 -96 0
v -128 -96 0
v -160 -96 0
v -192 -96 0
v -224 -96 0
v -256 -96 0
v -288 -96 0
v -320 -96 0
v 0 -128 0
v -32 -128 0
v -64 -128 0
v -96 -128 0
v -128 -128 0
v -160 -128 0
v -192 -128 0
v -224 -128 0
v -256 -128 0
v -288 -128 0
v -320 -128 0
v 0 -160 0
v -32 -160 0
v -64 -160 0
v -96 -160 0
v -128 -160 0
v -160 -160 0
v -192 -160 0
v -224 -160 0
v -256 -160 0
v -288 -160 0
v -320 -160 0
v 0 -192 0
v -32 -192 0
v -64 -192 0
v -96 -192 0
v -128 -192 0
v -160 -192 0
v -192 -192 0
v -224 -192 0
v -256 -192 0
v -288 -192 0
v -320 -192 0
v 0 -224 0
v -32 -224 0
v -64 -224 0
v -96 -224 0
v -128 -224 0
v -160 -224 0
v -192 -224 0
v -224 -224 0
v -256 -224 0
v -288 -224 0
v -320 -224 0
v 0 -256 0
v -32 -256 0
v -64 -256 0
v -96 -256 0
v -128 -256 0
v -160 -256 0
v -192 -256 0
v -224 -256 0
v -256 -256 0
v -288 -256 0
v -320 -256 0
v 0 -288 0
v -32 -288 0
v -64 -288 0
v -96 -288 0
v -128 -288 0
v -160 -288 0
v -192 -288 0
v -224 -288 0
v -256 -288 0
v -288 -288 0
v -320 -288 0
v 0 -320 0
v -32 -320 0
v -64 -320 0
v -96 -320 0
v -128 -320 0
v -160 -320 0
v -192 -320 0
v -224 -320 0
v -256 -320 0
v -288 -320 0
v -320 -320 0

# Texture cooridinates (Count = 88)
vt 0.06678874 0.5334554
vt 0.09987793 0.5334554
vt 0.09987793 0.5665446
vt 0.06678874 0.5665446
vt 0.0001220703 0.5667887
vt 0.03321126 0.5667887
vt 0.03321126 0.599878
vt 0.0001220703 0.599878
vt 0.03345541 0.5334554
vt 0.0665446 0.5334554
vt 0.0665446 0.5665446
vt 0.03345541 0.5665446
vt 0.0001220703 0.5334554
vt 0.03321126 0.5334554
vt 0.03321126 0.5665446
vt 0.0001220703 0.5665446
vt 0.1001221 0.5001221
vt 0.1332113 0.5001221
vt 0.1332113 0.5332112
vt 0.1001221 0.5332112
vt 0.06678874 0.6001221
vt 0.09987793 0.6001221
vt 0.09987793 0.6332113
vt 0.06678874 0.6332113
vt 0.1334554 0.6334554
vt 0.1665446 0.6334554
vt 0.1665446 0.6665446
vt 0.1334554 0.6665446
vt 0.1334554 0.6001221
vt 0.1665446 0.6001221
vt 0.1665446 0.6332113
vt 0.1334554 0.6332113
vt 0.2334554 0.7001221
vt 0.2665446 0.7001221
vt 0.2665446 0.7332113
vt 0.2334554 0.7332113
vt 0.2001221 0.7001221
vt 0.2332113 0.7001221
vt 0.2332113 0.7332113
vt 0.2001221 0.7332113
vt 0.2334554 0.6667887
vt 0.2665446 0.6667887
vt 0.2665446 0.6998779
vt 0.2334554 0.6998779
vt 0.0001220703 0.5001221
vt 0.03321126 0.5001221
vt 0.03321126 0.5332112
vt 0.0001220703 0.5332112
vt 0.03345541 0.5001221
vt 0.0665446 0.5001221
vt 0.0665446 0.5332112
vt 0.03345541 0.5332112
vt 0.06678874 0.5001221
vt 0.09987793 0.5001221
vt 0.09987793 0.5332112
vt 0.06678874 0.5332112
vt 0.0001220703 0.4667887
vt 0.03321126 0.4667887
vt 0.03321126 0.4998779
vt 0.0001220703 0.4998779
vt 0.03345541 0.4667887
vt 0.0665446 0.4667887
vt 0.0665446 0.4998779
vt 0.03345541 0.4998779
vt 0.06678874 0.4667887
vt 0.09987793 0.4667887
vt 0.09987793 0.4998779
vt 0.06678874 0.4998779
vt 0.0001220703 0.4334554
vt 0.03321126 0.4334554
vt 0.03321126 0.4665446
vt 0.0001220703 0.4665446
vt 0.03345541 0.4334554
vt 0.0665446 0.4334554
vt 0.0665446 0.4665446
vt 0.03345541 0.4665446
vt 0.06678874 0.4334554
vt 0.09987793 0.4334554
vt 0.09987793 0.4665446
vt 0.06678874 0.4665446
vt 0.1667887 0.9334554
vt 0.1998779 0.9334554
vt 0.1998779 0.9665446
vt 0.1667887 0.9665446
vt 0.03345541 0.1001221
vt 0.0665446 0.1001221
vt 0.0665446 0.1332113
vt 0.03345541 0.1332113

# Normal
vn 0 0 -1

# Groups (Count = 3)

g mesh_0001
f 1/1/1 2/2/1 3/3/1 4/4/1
f 2/5/1 5/6/1 6/7/1 3/8/1
f 5/5/1 7/6/1 8/7/1 6/8/1
f 7/5/1 9/6/1 10/7/1 8/8/1
f 9/5/1 11/6/1 12/7/1 10/8/1
f 11/5/1 13/6/1 14/7/1 12/8/1
f 13/5/1 15/6/1 16/7/1 14/8/1
f 15/5/1 17/6/1 18/7/1 16/8/1
f 17/5/1 19/6/1 20/7/1 18/8/1
f 19/9/1 21/10/1 22/11/1 20/12/1
f 23/13/1 24/14/1 2/15/1 1/16/1
f 24/13/1 25/14/1 5/15/1 2/16/1
f 25/13/1 26/14/1 7/15/1 5/16/1
f 26/13/1 27/14/1 9/15/1 7/16/1
f 27/13/1 28/14/1 11/15/1 9/16/1
f 28/13/1 29/14/1 13/15/1 11/16/1
f 29/13/1 30/14/1 15/15/1 13/16/1
f 30/13/1 31/14/1 17/15/1 15/16/1
f 31/13/1 32/14/1 19/15/1 17/16/1
f 32/17/1 33/18/1 21/19/1 19/20/1
f 34/1/1 35/2/1 24/3/1 23/4/1
f 35/21/1 36/22/1 25/23/1 24/24/1
f 36/21/1 37/22/1 26/23/1 25/24/1
f 37/21/1 38/22/1 27/23/1 26/24/1
f 38/21/1 39/22/1 28/23/1 27/24/1
f 39/21/1 40/22/1 29/23/1 28/24/1
f 40/21/1 41/22/1 30/23/1 29/24/1
f 41/21/1 42/22/1 31/23/1 30/24/1
f 42/21/1 43/22/1 32/23/1 31/24/1
f 43/9/1 44/10/1 33/11/1 32/12/1
f 45/1/1 46/2/1 35/3/1 34/4/1
f 46/21/1 47/22/1 36/23/1 35/24/1
f 47/21/1 48/22/1 37/23/1 36/24/1
f 48/21/1 49/22/1 38/23/1 37/24/1
f 49/21/1 50/22/1 39/23/1 38/24/1
f 50/21/1 51/22/1 40/23/1 39/24/1
f 51/21/1 52/22/1 41/23/1 40/24/1
f 52/21/1 53/22/1 42/23/1 41/24/1
f 53/21/1 54/22/1 43/23/1 42/24/1
f 54/9/1 55/10/1 44/11/1 43/12/1
f 56/1/1 57/2/1 46/3/1 45/4/1
f 57/21/1 58/22/1 47/23/1 46/24/1
f 58/21/1 59/22/1 48/23/1 47/24/1
f 59/21/1 60/22/1 49/23/1 48/24/1
f 60/21/1 61/22/1 50/23/1 49/24/1
f 61/21/1 62/22/1 51/23/1 50/24/1
f 62/21/1 63/22/1 52/23/1 51/24/1
f 63/21/1 64/22/1 53/23/1 52/24/1
f 64/21/1 65/22/1 54/23/1 53/24/1
f 65/9/1 66/10/1 55/11/1 54/12/1
f 67/1/1 68/2/1 57/3/1 56/4/1
f 68/21/1 69/22/1 58/23/1 57/24/1
f 69/21/1 70/22/1 59/23/1 58/24/1
f 70/21/1 71/22/1 60/23/1 59/24/1
f 71/21/1 72/22/1 61/23/1 60/24/1
f 72/21/1 73/22/1 62/23/1 61/24/1
f 73/21/1 74/22/1 63/23/1 62/24/1
f 74/21/1 75/22/1 64/23/1 63/24/1
f 75/21/1 76/22/1 65/23/1 64/24/1
f 76/9/1 77/10/1 66/11/1 65/12/1
f 78/1/1 79/2/1 68/3/1 67/4/1
f 79/21/1 80/22/1 69/23/1 68/24/1
f 80/21/1 81/22/1 70/23/1 69/24/1
f 81/21/1 82/22/1 71/23/1 70/24/1
f 82/21/1 83/22/1 72/23/1 71/24/1
f 83/21/1 84/22/1 73/23/1 72/24/1
f 84/21/1 85/22/1 74/23/1 73/24/1
f 85/21/1 86/22/1 75/23/1 74/24/1
f 86/21/1 87/22/1 76/23/1 75/24/1
f 87/9/1 88/10/1 77/11/1 76/12/1
f 89/1/1 90/2/1 79/3/1 78/4/1
f 90/21/1 91/22/1 80/23/1 79/24/1
f 91/21/1 92/22/1 81/23/1 80/24/1
f 92/21/1 93/22/1 82/23/1 81/24/1
f 93/21/1 94/22/1 83/23/1 82/24/1
f 94/21/1 95/22/1 84/23/1 83/24/1
f 95/21/1 96/22/1 85/23/1 84/24/1
f 96/21/1 97/22/1 86/23/1 85/24/1
f 97/21/1 98/22/1 87/23/1 86/24/1
f 98/9/1 99/10/1 88/11/1 87/12/1
f 100/1/1 101/2/1 90/3/1 89/4/1
f 101/21/1 102/22/1 91/23/1 90/24/1
f 102/21/1 103/22/1 92/23/1 91/24/1
f 103/21/1 104/22/1 93/23/1 92/24/1
f 104/21/1 105/22/1 94/23/1 93/24/1
f 105/21/1 106/22/1 95/23/1 94/24/1
f 106/21/1 107/22/1 96/23/1 95/24/1
f 107/21/1 108/22/1 97/23/1 96/24/1
f 108/21/1 109/22/1 98/23/1 97/24/1
f 109/9/1 110/10/1 99/11/1 98/12/1
f 111/1/1 112/2/1 101/3/1 100/4/1
f 112/21/1 113/22/1 102/23/1 101/24/1
f 113/21/1 114/22/1 103/23/1 102/24/1
f 114/21/1 115/22/1 104/23/1 103/24/1
f 115/21/1 116/22/1 105/23/1 104/24/1
f 116/21/1 117/22/1 106/23/1 105/24/1
f 117/21/1 118/22/1 107/23/1 106/24/1
f 118/21/1 119/22/1 108/23/1 107/24/1
f 119/21/1 120/22/1 109/23/1 108/24/1
f 120/9/1 121/10/1 110/11/1 109/12/1

g mesh_0002
f 23/1/1 24/2/1 2/3/1 1/4/1
f 24/25/1 25/26/1 5/27/1 2/28/1
f 32/9/1 33/10/1 21/11/1 19/12/1
f 35/29/1 36/30/1 25/31/1 24/32/1
f 40/33/1 41/34/1 30/35/1 29/36/1
f 41/37/1 42/38/1 31/39/1 30/40/1
f 42/41/1 43/42/1 32/43/1 31/44/1
f 46/45/1 47/46/1 36/47/1 35/48/1
f 47/49/1 48/50/1 37/51/1 36/52/1
f 48/53/1 49/54/1 38/55/1 37/56/1
f 51/45/1 52/46/1 41/47/1 40/48/1
f 52/49/1 53/50/1 42/51/1 41/52/1
f 53/53/1 54/54/1 43/55/1 42/56/1
f 57/57/1 58/58/1 47/59/1 46/60/1
f 58/61/1 59/62/1 48/63/1 47/64/1
f 59/65/1 60/66/1 49/67/1 48/68/1
f 62/57/1 63/58/1 52/59/1 51/60/1
f 63/61/1 64/62/1 53/63/1 52/64/1
f 64/65/1 65/66/1 54/67/1 53/68/1
f 68/69/1 69/70/1 58/71/1 57/72/1
f 69/73/1 70/74/1 59/75/1 58/76/1
f 70/77/1 71/78/1 60/79/1 59/80/1
f 73/69/1 74/70/1 63/71/1 62/72/1
f 74/73/1 75/74/1 64/75/1 63/76/1
f 75/77/1 76/78/1 65/79/1 64/80/1
f 112/81/1 113/82/1 102/83/1 101/84/1
f 113/81/1 114/82/1 103/83/1 102/84/1
f 114/81/1 115/82/1 104/83/1 103/84/1
f 117/81/1 118/82/1 107/83/1 106/84/1
f 118/81/1 119/82/1 108/83/1 107/84/1
f 119/81/1 120/82/1 109/83/1 108/84/1

g mesh_0003
f 60/85/1 61/86/1 50/87/1 49/88/1

